<svg viewBox="0 0 512 512" xmlns="http://www.w3.org/2000/svg">
    <path d="m325.08023,254.16735c-2.27055,-44.21506 -35.10145,-70.80947 -74.74837,-70.80947l-1.49271,0c-45.75131,0 -71.12043,35.9769 -71.12043,76.84766c0,45.75277 30.69113,74.65689 70.94771,74.65689c44.86825,0 74.37896,-32.87444 76.51434,-71.75258l-0.10083,-8.9425l0.00029,0zm-76.01853,-110.38743c30.56941,0 59.31572,13.51355 80.41569,34.67344l0,0.0789c0,-10.1542 6.83707,-17.81281 16.32463,-17.81281l2.40265,-0.0161c14.83791,0 17.89376,14.04663 17.89376,18.49011l0.0672,157.91815c-1.04965,10.34343 10.67237,15.68341 17.16706,9.04303c25.36152,-26.06002 55.69376,-133.97115 -15.76452,-196.48095c-66.59585,-58.29168 -155.95549,-48.69003 -203.47876,-15.93125c-50.52505,34.84324 -82.84683,111.9703 -51.44697,184.40458c34.23344,79.00115 132.18414,102.5653 190.40359,79.05815c29.47929,-11.89766 43.09031,27.94902 12.47443,40.97143c-46.25616,19.70039 -175.02089,17.71217 -235.1672,-86.48379c-40.63958,-70.35004 -38.48608,-194.13382 69.30493,-258.26249c82.45039,-49.07445 191.16347,-35.49188 256.71421,32.96612c68.51948,71.56628 64.51614,205.58696 -2.30796,257.68275c-30.28271,23.6752 -75.26202,0.64267 -74.97824,-33.85059l-0.30789,-11.27602c-21.08477,20.92125 -49.14793,33.12827 -79.71734,33.12827c-60.39852,0 -113.54541,-53.13038 -113.54541,-113.53943c0,-60.99006 53.14689,-114.76179 113.54541,-114.76179l0,0"/>
</svg>
