<svg viewBox="0 0 30 30" xmlns="http://www.w3.org/2000/svg">
    <path fill-rule="evenodd"
          d="m16,24c1,0 1,-1.441 1,-2c0,-1 1,-2 2,-2s2.715,1.715 4,3c1,1 1,1 2,1s3,0 3,0s2,-0.076 2,-2c0,-0.625 -0.685,-1.685 -3,-4c-2,-2 -3.026,-0.967 0,-5c1.843,-2.456 3.184,-4.681 2.954,-5.323c-0.22,-0.613 -5.346,-1.589 -5.954,-0.677c-2,3 -2.367,3.735 -3,5c-1,2 -1.099,3 -2,3c-0.909,0 -1,-1.941 -1,-3c0,-3.306 0.479,-5.644 -1,-6c0,0 -2,0 -3,0c-1.61,0 -3,1 -3,1s-1.241,0.968 -1,1c0.298,0.04 2,-0.414 2,1c0,1 0,2 0,2s0.009,4 -1,4c-1,0 -3,-4 -5,-7c-0.785,-1.177 -1,-1 -2,-1c-1.072,0 -1.999,0.042 -3,0.042c-1,0 -1.128,0.637 -1,0.958c2,5 3.437,8.14 7.237,12.096c3.485,3.629 5.813,3.822 7.763,3.904c0.5,0.021 0,0 1,0z"
          clip-rule="evenodd"/>
</svg>
