<svg width="16" height="16" viewBox="0 0 16 16" fill="none" xmlns="http://www.w3.org/2000/svg">
<path d="M4.16247 6.99117C3.96721 6.7959 3.65063 6.7959 3.45536 6.99116L2.10289 8.34364C0.569383 9.87715 0.569382 12.3635 2.10289 13.897C3.63639 15.4305 6.1227 15.4305 7.65621 13.897L9.00868 12.5445C9.20394 12.3492 9.20394 12.0326 9.00868 11.8374C8.81342 11.6421 8.49684 11.6421 8.30157 11.8374L6.9491 13.1898C5.80612 14.3328 3.95298 14.3328 2.80999 13.1898C1.66701 12.0469 1.66701 10.1937 2.81 9.05075L4.16247 7.69827C4.35773 7.50301 4.35773 7.18643 4.16247 6.99117Z" fill="#465468"/>
<path d="M11.8371 9.00895C11.6418 8.81369 11.6418 8.4971 11.8371 8.30184L13.1895 6.94946C14.3325 5.80648 14.3325 3.95334 13.1895 2.81036C12.0465 1.66738 10.1934 1.66738 9.05038 2.81036L7.69801 4.16274C7.50274 4.358 7.18616 4.358 6.9909 4.16274C6.79564 3.96748 6.79564 3.65089 6.9909 3.45563L8.34327 2.10326C9.87678 0.569749 12.3631 0.569748 13.8966 2.10325C15.4301 3.63676 15.4301 6.12306 13.8966 7.65657L12.5442 9.00895C12.349 9.20421 12.0324 9.20421 11.8371 9.00895Z" fill="#465468"/>
<rect x="5.26599" y="10.0264" width="6.73227" height="1" rx="0.5" transform="rotate(-45 5.26599 10.0264)" fill="#465468"/>
</svg>
