<svg viewBox="0 0 12 14" fill="none" xmlns="http://www.w3.org/2000/svg">
    <path d="M1.94413 9.07538C2.48045 9.07538 2.94972 8.86432 3.28492 8.51256L8.04469 11.397C7.97765 11.5377 7.97765 11.7487 7.97765 11.8894C7.97765 13.0854 8.84916 14 9.98883 14C11.1285 14 12 13.0854 12 11.8894C12 10.6935 11.1285 9.77889 9.98883 9.77889C9.45251 9.77889 8.98324 9.98995 8.64804 10.3417L3.88827 7.45729C3.95531 7.31658 3.95531 7.10553 3.95531 6.96482C3.95531 6.82412 3.95531 6.61307 3.88827 6.47236L8.64805 3.51759C8.98324 3.86935 9.45251 4.0804 9.98883 4.0804C11.0615 4.0804 11.933 3.16583 11.933 2.0402C11.933 0.914574 11.0615 8.71624e-07 9.98883 7.77852e-07C8.9162 6.8408e-07 8.04469 0.914573 8.04469 2.0402C8.04469 2.1809 8.04469 2.32161 8.11173 2.53266L3.35196 5.48744C3.01676 5.13568 2.54749 4.92462 2.01117 4.92462C0.871508 4.92462 -2.40234e-07 5.8392 -3.4479e-07 7.03518C-4.49346e-07 8.23116 0.80447 9.07538 1.94413 9.07538Z" fill="#1CABDA"/>
</svg>
